<?xml version="1.0" ?><!DOCTYPE svg  PUBLIC '-//W3C//DTD SVG 1.1//EN'  'http://www.w3.org/Graphics/SVG/1.1/DTD/svg11.dtd'>
<svg enable-background="new 0 0 64 64" height="64px" id="Layer_1" version="1.1" viewBox="0 0 64 64" width="64px" xml:space="preserve" xmlns="http://www.w3.org/2000/svg" xmlns:xlink="http://www.w3.org/1999/xlink"><g id="safe"><path d="M59,55c0,2.2-1.8,4-4,4H9c-2.2,0-4-1.8-4-4V7c0-2.2,1.8-4,4-4h46c2.2,0,4,1.8,4,4V55z" fill="#80DEEA"/><g><path d="M13,52.5c-0.827,0-1.5-0.673-1.5-1.5V11c0-0.827,0.673-1.5,1.5-1.5h38c0.827,0,1.5,0.673,1.5,1.5v40    c0,0.827-0.673,1.5-1.5,1.5H13z" fill="#4DD0E1"/><path d="M51,10c0.552,0,1,0.448,1,1v40c0,0.552-0.448,1-1,1H13c-0.552,0-1-0.448-1-1V11c0-0.552,0.448-1,1-1H51     M51,9H13c-1.1,0-2,0.9-2,2v40c0,1.1,0.9,2,2,2h38c1.1,0,2-0.9,2-2V11C53,9.9,52.1,9,51,9L51,9z" fill="#37474F"/></g><path d="M13,52.5c-0.827,0-1.5-0.673-1.5-1.5V11c0-0.827,0.673-1.5,1.5-1.5h38c0.827,0,1.5,0.673,1.5,1.5v40   c0,0.827-0.673,1.5-1.5,1.5H13z" fill="#80DEEA"/><g><path d="M51,11v40H13V11H51 M51,10H13c-0.552,0-1,0.448-1,1v40c0,0.552,0.448,1,1,1h38c0.552,0,1-0.448,1-1V11    C52,10.448,51.552,10,51,10L51,10z" fill="#26C6DA"/></g><circle cx="32" cy="31" fill="#26C6DA" r="14"/><circle cx="32" cy="31" fill="#455A64" r="13"/><circle cx="32" cy="31" fill="#D5D5D5" r="11"/><path d="M32,42.001C38,42.001,42.999,37,42.999,31H32V42.001z" fill="#BDBDBD"/><path d="M32,20c-6.073,0-11,4.927-11,11h11V20z" fill="#E0E0E0"/><g><rect fill="#37474F" height="3" transform="matrix(-0.8658 -0.5003 0.5003 -0.8658 55.8088 62.2431)" width="0.999" x="35.75" y="22.139"/><rect fill="#37474F" height="3" transform="matrix(-0.8665 -0.4992 0.4992 -0.8665 32.6446 85.4543)" width="1" x="27.25" y="36.862"/><rect fill="#37474F" height="3" transform="matrix(-0.5003 -0.8658 0.8658 -0.5003 35.8946 74.2143)" width="0.999" x="38.862" y="25.25"/><rect fill="#37474F" height="3" transform="matrix(-0.5011 -0.8654 0.8654 -0.5011 6.4783 74.2349)" width="1" x="24.138" y="33.75"/><rect fill="#37474F" height="1" width="3" x="39" y="30.5"/><rect fill="#37474F" height="1" width="3" x="22" y="30.5"/><rect fill="#37474F" height="2.999" transform="matrix(0.5003 -0.8658 0.8658 0.5003 -10.8537 51.6933)" width="0.999" x="38.862" y="33.751"/><rect fill="#37474F" height="3" transform="matrix(0.4999 -0.8661 0.8661 0.4999 -10.8457 34.7158)" width="1" x="24.139" y="25.25"/><rect fill="#37474F" height="3" transform="matrix(0.8658 -0.5003 0.5003 0.8658 -14.3301 23.2845)" width="0.999" x="35.75" y="36.862"/><rect fill="#37474F" height="3" transform="matrix(0.8658 -0.5003 0.5003 0.8658 -8.1041 17.0562)" width="0.999" x="27.25" y="22.139"/><rect fill="#37474F" height="3" width="1" x="31.5" y="38"/><rect fill="#37474F" height="3" width="1" x="31.5" y="21"/></g><g><circle cx="32" cy="31" fill="#E0E0E0" r="6"/><g><circle cx="32" cy="31" fill="#FFFFFF" r="4"/><path d="M26,31c0-3.309,2.691-6,6-6v2c-2.205,0-4,1.795-4,4H26z" fill="#EEEEEE"/><path d="M32,37v-2c2.206,0,4-1.794,4-4h2C38,34.309,35.309,37,32,37z" fill="#D5D5D5"/></g></g><rect fill="#008D9F" height="2" width="8" x="47" y="59"/><rect fill="#008D9F" height="2" width="8" x="9" y="59"/><polygon fill="#FFFFFF" points="32,20 31,18 33,18  "/><path d="M55,3H9C6.8,3,5,4.8,5,7v48c0,1.002,0.386,1.909,1,2.613V55V43V7c0-1.654,1.346-3,3-3h4h42h2.613   C56.909,3.386,56.002,3,55,3z" fill="#B3EBF2"/><path d="M13,51V11h38h1c0-0.552-0.448-1-1-1H13c-0.552,0-1,0.448-1,1v40c0,0.552,0.448,1,1,1V51z" fill="#B3EBF2"/><g><path d="M51,9c1.1,0,2,0.9,2,2v40c0,1.1-0.9,2-2,2H13c-1.1,0-2-0.9-2-2V11c0-1.1,0.9-2,2-2H51 M51,8H13    c-1.654,0-3,1.346-3,3v40c0,1.654,1.346,3,3,3h38c1.654,0,3-1.346,3-3V11C54,9.346,52.654,8,51,8L51,8z" fill="#B3EBF2"/></g><path d="M51,8H13c-1.654,0-3,1.346-3,3v40c0,0.883,0.391,1.67,1,2.22V51V40V11c0-1.1,0.9-2,2-2h1h37h2.22   C52.67,8.391,51.883,8,51,8z" fill="#26C6DA"/><path d="M58,4.387V7v48c0,1.654-1.346,3-3,3H6.387C7.091,58.614,7.998,59,9,59h46c2.2,0,4-1.8,4-4V7   C59,5.998,58.614,5.091,58,4.387z" fill="#26C6DA"/><rect fill="#26C6DA" height="12" width="4" x="49" y="37"/><rect fill="#26C6DA" height="12" width="4" x="49" y="13"/><path d="M51,10c0.552,0,1,0.448,1,1v40c0,0.552-0.448,1-1,1H13c-0.552,0-1-0.448-1-1V11c0-0.552,0.448-1,1-1H51    M51,9H13c-1.1,0-2,0.9-2,2v40c0,1.1,0.9,2,2,2h38c1.1,0,2-0.9,2-2V11C53,9.9,52.1,9,51,9L51,9z" fill="#37474F"/><rect fill="#37474F" height="10" opacity="0.2" width="5" x="51" y="15"/><rect fill="#37474F" height="10" opacity="0.2" width="5" x="51" y="39"/><rect fill="#80DEEA" height="10" width="5" x="50" y="14"/><rect fill="#80DEEA" height="10" width="5" x="50" y="38"/><rect fill="#4DD0E1" height="10" width="2" x="53" y="14"/><rect fill="#4DD0E1" height="10" width="2" x="53" y="38"/><rect fill="#B3EBF2" height="10" width="1" x="51" y="14"/><rect fill="#B3EBF2" height="10" width="1" x="51" y="38"/></g></svg>